<!-- preserveAcspectRatio: nos permite modificar su ancho y alto -->
<svg xmlns="http://www.w3.org/2000/svg" viewBox="0 0 1440 320" preserveAspectRatio="none"><path fill="#fff" fill-opacity="1" d="M0,192L48,165.3C96,139,192,85,288,96C384,107,480,181,576,186.7C672,192,768,128,864,90.7C960,53,1056,43,1152,58.7C1248,75,1344,117,1392,138.7L1440,160L1440,320L1392,320C1344,320,1248,320,1152,320C1056,320,960,320,864,320C768,320,672,320,576,320C480,320,384,320,288,320C192,320,96,320,48,320L0,320Z"></path></svg>